<svg xmlns="http://www.w3.org/2000/svg" xmlns:xlink="http://www.w3.org/1999/xlink" width="222.654" height="136.442" viewBox="0 0 222.654 136.442"><defs><style>.a{fill:rgba(207,231,199,0.5);}.b{opacity:0.22;}.c,.d{fill:#4491a1;}.c{opacity:0.5;}.e{fill:#a46c35;}.f{fill:#b8c33f;}.g{fill:#97a40c;}.h{fill:#d4d841;}.i{fill:#00394d;}.j{fill:#ffd4c6;}.k{fill:#1b576c;}.l{fill:#74c5b7;}.m{fill:url(#a);}.n{fill:url(#b);}.o{fill:url(#c);}.p{fill:#347f7c;}.q{fill:#dadd21;}</style><linearGradient id="a" x1="0.529" y1="1.033" x2="0.35" y2="-1.706" gradientUnits="objectBoundingBox"><stop offset="0" stop-color="#ffd4c6"/><stop offset="1" stop-color="#ffab91"/></linearGradient><linearGradient id="b" x1="0.523" y1="1.021" x2="0.435" y2="-1.771" xlink:href="#a"/><linearGradient id="c" x1="0.582" y1="2.475" x2="0.226" y2="-6.002" xlink:href="#a"/></defs><g transform="translate(0)"><g transform="translate(0 0)"><path class="a" d="M638.68,376.94H821.715c24.262-18.249,27.609-63.262,9.761-83.37-7.7-8.674-21.555-16.1-36.726-14.545-36.973,3.8-47.8,57.515-74.542,54.907-12.742-1.243-12.352-13.641-32-19.636-13.414-4.093-37.79-5.694-50.907,10.182C623.769,340.857,627.465,370.723,638.68,376.94Z" transform="translate(-620.116 -240.498)"/><path class="a" d="M638.275,363H787.107q8.1-.034,14.271,0h40.95c12.5-8.4,14.177-35.009,5.807-54.049-9.194-20.914-32.492-37.206-51.135-34.179-10.079,1.638-16.38,8.53-22.52,5.034-5.521-3.143-3.881-10.684-7.948-20.665-5.364-13.165-17.032-21.694-24.64-25.17-21.269-9.718-52.991.767-64.647,20.4-11.862,19.979,3.432,38.688-10.863,53.784-9.644,10.184-21.045,6.359-28.88,17.221-8.031,11.136-9.437,28.69-1.854,35.768A12.137,12.137,0,0,0,638.275,363Z" transform="translate(-630.656 -230.296)"/><g transform="translate(39.829 34.107)"><g class="b" transform="translate(0 92.624)"><path class="c" d="M66.753,301.612c-4.012-1.306-8.428-.777-12.565-.56-4.354.218-8.677.435-13.031.529a108.9,108.9,0,0,1-12.72-.964,57.742,57.742,0,0,0-8.366-.093,2.379,2.379,0,0,0-2.644-1.337c-2.706.529-5.411,1.026-8.117,1.555a1.864,1.864,0,0,0-2.146-.809c-2.3.9-4.572,1.9-6.842,2.923-.653.28-.311,1.306.342,1.275,1.4-.031,2.8-.062,4.2-.124a2.289,2.289,0,0,0,2.612,1.462c1.959-.311,3.888-.653,5.847-.964a2.236,2.236,0,0,0,1.8.9,113.952,113.952,0,0,0,13.031-.311c2.084-.249,4.2-.591,6.282-.933a48.909,48.909,0,0,1,6.749-.5c4.261-.031,8.459.031,12.72.093s8.8.5,12.876-.964A.621.621,0,0,0,66.753,301.612Z" transform="translate(0.029 -298.715)"/><path class="d" d="M223.1,307.8a.047.047,0,1,0,0,.093A.047.047,0,0,0,223.1,307.8Z" transform="translate(-153.672 -304.686)"/><path class="c" d="M249.149,301.653c-1.555-.187-3.2-.093-4.789-.187-.809-.062-1.586-.062-2.395-.062a2.222,2.222,0,0,0-.4.031,2.235,2.235,0,0,0-1.711-1.742,22.66,22.66,0,0,0-4.6-.124,1.919,1.919,0,0,0-2.426-1,4.608,4.608,0,0,0-1.462.56c-.746.124-1.617.124-2.208.218l-3.266.466c-2.177.311-4.323.746-6.469,1.244-.84.187-.622,1.431.187,1.462,2.208.093,4.416.124,6.656.031.933-.031,1.9-.062,2.83-.124a2.34,2.34,0,0,0,2.364,2.239c2.737.031,5.723.28,8.4-.249l-.031-.031a2.262,2.262,0,0,0,1.337-.84,6.26,6.26,0,0,0,.809-.031c.777-.062,1.555-.187,2.332-.311,1.648-.28,3.359-.342,4.976-.715C249.771,302.368,249.616,301.715,249.149,301.653Z" transform="translate(-150.801 -298.228)"/><path class="c" d="M347.845,300.434a38.9,38.9,0,0,0-4.634-.435,2.032,2.032,0,0,0-2.3-2.115c-2.83.28-5.691.467-8.553.778a2.173,2.173,0,0,0-2.208-.84c-2.426.4-4.821.871-7.246,1.244-2.395.4-4.945.56-7.184,1.431-.466.187-.591.964,0,1.089a35.262,35.262,0,0,0,7.246.28h2.923a2.215,2.215,0,0,0,2.177,1.866,74.3,74.3,0,0,0,7.868-.529,1.7,1.7,0,0,0,1.99.466,9.892,9.892,0,0,0,1.586-.4c1.182-.187,2.426-.187,3.546-.28a35.068,35.068,0,0,0,4.758-.684A.968.968,0,0,0,347.845,300.434Z" transform="translate(-217.246 -297.787)"/></g><g transform="translate(3.43 0)"><g transform="translate(0 4.364)"><g transform="translate(15.586 38.409)"><path class="e" d="M67.393,245.6,65.9,262.736c.591.093,1.151.186,1.742.249l4.821-15.395Z" transform="translate(-64.412 -211.98)"/><path class="f" d="M71.81,164.651l.4-22.672L61.391,137.5l-.124.622c-1.275,6.065,5.971,26.342,5.971,26.342l-3.017,5.194-.124,1.493,5.069,1.959Z" transform="translate(-61.116 -137.5)"/><path class="g" d="M63.364,302.3l1.742.249,2.022,1.462,2.706.684.311.653-7.744-.933Z" transform="translate(-62.001 -251.047)"/></g><g transform="translate(0 36.699)"><path class="e" d="M16.3,257.97c.56.218,1.089.435,1.648.653l8.3-14.12-4.261-1.8Z" transform="translate(-14.652 -208.272)"/><path class="h" d="M39.334,132l-1.026,2.208c-2.115,4.572-3.11,6.811-2.706,11.818l3.3,13.933-3.017,3.266-1.182,3.2,4.261,1.8,4.385-7.464,3.266-21.148Z" transform="translate(-27.329 -132)"/><path class="g" d="M12.431,293.2l1.617.653,1.648,1.866,2.488,1.275.156.746L11,295.066Z" transform="translate(-11 -243.066)"/></g><g transform="translate(0.622 12.347)"><g transform="translate(25.005)"><path class="e" d="M93.4,57.4l12.16-3.7,14.928,1.835V57.4l-14.213.062L94.426,61.04Z" transform="translate(-93.4 -53.7)"/><g transform="translate(26.393 1.866)"><path class="e" d="M178.586,61.131a1.265,1.265,0,0,0-.187,1.431,3.311,3.311,0,0,0,1.026,1.151,5.289,5.289,0,0,1,1.151,1.057c.249.373.4.809.653,1.213a1.614,1.614,0,0,0,1,.871c-.56-1.431-1.12-2.83-1.679-4.261a9.907,9.907,0,0,0-1.524-2.892,1.558,1.558,0,0,0-.249.218Z" transform="translate(-178.263 -59.7)"/><path class="e" d="M186.992,74.237a1.09,1.09,0,0,0-.435-.187c.187-.249-.249-.9-.062-1.151.746.715,2.115,1.835,2.861,2.55a1.766,1.766,0,0,1-1.275-.373A9.238,9.238,0,0,0,186.992,74.237Z" transform="translate(-183.902 -68.795)"/><path class="e" d="M185.942,71.275c-.156-.062-.311-.093-.467-.156.187-.249-.342-.871-.218-1.12.809.622,2.3,1.586,3.141,2.208a1.537,1.537,0,0,1-1.306-.249C186.719,71.773,186.346,71.462,185.942,71.275Z" transform="translate(-183.069 -66.797)"/><path class="e" d="M184.308,73.212V72.87c.249.062.591-.4.84-.373-.28.715-.622,1.99-.9,2.675a1.127,1.127,0,0,1-.155-1A8.774,8.774,0,0,0,184.308,73.212Z" transform="translate(-182.244 -68.516)"/></g></g><path class="g" d="M51.6,70.7a10.755,10.755,0,0,1-3.639,11.01c-1.524,1.182-3.577,2.395-3.39,4.323.124,1.4,1.524,2.364,2.8,2.923a20.439,20.439,0,0,0,9.7,1.773,5.47,5.47,0,0,0,3.732-1.368,4.731,4.731,0,0,0,.778-4.136c-.28-1.431-.871-2.8-1.057-4.261-.311-2.395.5-4.758,1.306-7.029,1.462-4.074,2.8-11.787-3.328-12.782a9.52,9.52,0,0,0-6.344,1.835C49.239,64.974,50.856,67.929,51.6,70.7Z" transform="translate(-34.746 -58.785)"/><g transform="translate(0 2.675)"><path class="e" d="M27.648,62.3,13,71.444,23.294,87.025l1.586-1.089L18.536,72.066l11.2-5.474Z" transform="translate(-13 -62.3)"/><g transform="translate(10.045 21.428)"><path class="e" d="M45.3,138.169a1.273,1.273,0,0,0,1.244.778,3.467,3.467,0,0,0,1.462-.435,5.16,5.16,0,0,1,1.431-.591,9.848,9.848,0,0,1,1.368-.062,1.689,1.689,0,0,0,1.213-.529c-1.524-.093-3.048-.187-4.572-.249A2.993,2.993,0,0,0,45.3,138.169Z" transform="translate(-45.3 -135.245)"/><path class="e" d="M57.462,134.317a3.3,3.3,0,0,0-.373.311c-.124-.28-.9-.156-1.089-.4.964-.373,2.55-1.151,3.514-1.524a1.615,1.615,0,0,1-.871,1A7.207,7.207,0,0,0,57.462,134.317Z" transform="translate(-52.672 -132.233)"/><path class="e" d="M54.531,133.066a1.63,1.63,0,0,0-.311.342c-.155-.28-.933-.062-1.12-.28.9-.5,2.395-1.431,3.328-1.928a1.881,1.881,0,0,1-.746,1.089A12.307,12.307,0,0,0,54.531,133.066Z" transform="translate(-50.674 -131.2)"/><path class="e" d="M56.411,137.489a3.673,3.673,0,0,0-.342-.156c.187-.187-.124-.715.031-.933.529.56,1.524,1.4,2.053,1.928a1.207,1.207,0,0,1-.964-.249A5.105,5.105,0,0,0,56.411,137.489Z" transform="translate(-52.71 -134.783)"/></g></g></g><g transform="translate(4.839)"><path class="i" d="M53.132,22.117a3.349,3.349,0,0,0-1-3.981,3.193,3.193,0,0,0-1.524-3.608,4.68,4.68,0,0,0-4.074-.124,8.969,8.969,0,0,0-3.266,2.644c-.9,1.089-1.617,2.3-2.457,3.452a4.155,4.155,0,0,1-1.866,1.648,6,6,0,0,1-2.675-.093,2.687,2.687,0,0,0-2.519.622c-.746.9-.28,2.3-.746,3.359a3.513,3.513,0,0,1-2.146,1.648,10.407,10.407,0,0,0-2.581,1.026c-1.617,1.12-1.99,3.421-1.555,5.349A8.215,8.215,0,0,0,31.952,40a7.262,7.262,0,0,0,7.589-1.928c2.053-2.364,2.239-5.847,4.012-8.428,1.462-2.084,3.452-2.706,5.722-3.483A7.343,7.343,0,0,0,53.132,22.117Z" transform="translate(-26.559 -13.999)"/><g transform="translate(17.703 4.696)"><path class="e" d="M88.9,29.1a1.473,1.473,0,0,1,1.088,1.182c.124.56.093,1.12.187,1.679a1.659,1.659,0,0,0,.933,1.337c.249.093.591.124.715.373.124.342-.342.591-.56.871a1.656,1.656,0,0,0-.031,1.617v.031a1.259,1.259,0,0,1-1.213,1.617c-.4,0-.9-.031-1.524-.062a.754.754,0,0,0-.746.435c-.529,1.244-1.835,4.416-1.959,4.945-.964.249-1.586-.56-2.146-1.8a1.971,1.971,0,0,1-.062-1.4l1.493-4.385a1.051,1.051,0,0,1-1.151-.187,1.01,1.01,0,0,1-.28-1.12c.155-.373,1.12-1.12,1.586.124a4.467,4.467,0,0,0,.4-2.115C85.477,29.753,88.9,29.1,88.9,29.1Z" transform="translate(-83.48 -29.1)"/></g></g></g><g transform="translate(23.978 2.449)"><g transform="translate(21.833 28.444)"><path class="j" d="M162.561,99.549l.311,7.868,6.033,11.849-1.9.684-7.931-11.165L158.3,99.3Z" transform="translate(-158.3 -99.3)"/><path class="j" d="M187.742,163.094a3.736,3.736,0,0,1,1.306.124,1.274,1.274,0,0,1,.9.871,3.509,3.509,0,0,0,.093.56c.093.311.4.529.591.778.218.249.342.653.093.871-.187.155-.466.124-.684.155-.591.062-1.12.529-1.711.56a1.708,1.708,0,0,1-1.368-.653,4.666,4.666,0,0,1-.746-1.4,2.119,2.119,0,0,1-.218-.871.729.729,0,0,1,.435-.715Z" transform="translate(-177.385 -143.252)"/></g><g transform="translate(15.895 40.916)"><path class="i" d="M148.909,143.661l-9.641-4.261-.031.653a35.8,35.8,0,0,0,3.981,17.883l3.421,6.624-.746,7,3.048,17.7c.591,0,1.182-.031,1.773-.031l3.359-24.787Z" transform="translate(-139.208 -139.4)"/><path class="k" d="M168.991,301.262l1.773-.062L173,302.289l2.768.249.435.591-7.806.373Z" transform="translate(-159.321 -250.879)"/></g><g transform="translate(0 38.521)"><path class="k" d="M111.072,139.351l-7.246-7.651-1.026,2.208a29.229,29.229,0,0,0-2.612,14.617l.746,9.237-3.39,6.158L93.5,181.43c.56.218,1.089.435,1.648.653L107.837,160.5Z" transform="translate(-91.821 -131.7)"/><path class="k" d="M89.531,293l1.617.622,1.648,1.866,2.488,1.306.156.715-7.34-2.644Z" transform="translate(-88.1 -242.835)"/></g><path class="l" d="M130.2,52.8a7.1,7.1,0,0,0-4.758,2.426,16.574,16.574,0,0,0-2.612,4.478c-2.364,5.443-6.469,23.077-5.349,24.849a55.776,55.776,0,0,1,5.6.933c2.675.653,5.318,1.337,7.993,1.99,1.213.311,3.825,1.057,3.825,1.057,1.8-.933-.964-18.847-.249-25.16.342-2.923.809-6.189-1.12-8.553Z" transform="translate(-108.212 -38.817)"/><g transform="translate(20.962)"><path class="i" d="M166.341,14.514a6.82,6.82,0,0,0,1.9-2.955,3.19,3.19,0,0,0-.187-2.768,2.748,2.748,0,0,0-2.55-.933,8.271,8.271,0,0,0-2.643,1c-.622.342-1.275.653-1.9,1a2.736,2.736,0,0,0-1.026.746,1.037,1.037,0,0,0-.093,1.182,2.409,2.409,0,0,0-1.337,3.359c.373.622,1.026,1.12,1.12,1.866.124.933-.778,1.835-.5,2.737Z" transform="translate(-157.384 -7.84)"/><path class="m" d="M164.084,20.293a1.512,1.512,0,0,1,.809,1.462,17.354,17.354,0,0,1-.249,1.773,1.738,1.738,0,0,0,.622,1.586c.249.156.591.28.622.56.031.373-.5.5-.809.746-.467.342-.467,1.057-.435,1.648s0,1.306-.5,1.617c-.653.4-1.431-.218-2.177-.311a2.283,2.283,0,0,0-1.866.778,28.335,28.335,0,0,0-1.866,3.919c-1.244,0-2.488-1.617-2.737-3.452l3.048-4.727a1.148,1.148,0,0,1-1.12-.467,1.079,1.079,0,0,1,0-1.213c.249-.342,1.431-.871,1.586.529a4.86,4.86,0,0,0,.964-2.053C160.445,20.107,164.084,20.293,164.084,20.293Z" transform="translate(-155.5 -16.418)"/></g><g transform="translate(15.488 23.686)"><path class="n" d="M143,84l1.773,6.842,13.84-2.706.591,2.208-17.416,7.246L137.9,85.835Z" transform="translate(-137.9 -84)"/><path class="o" d="M200.6,93.091a4.282,4.282,0,0,1,.777-1.306,1.455,1.455,0,0,1,1.368-.5c.218.031.4.156.622.187a2.651,2.651,0,0,0,1.089-.249c.373-.093.871,0,.964.342.093.28-.093.529-.187.809-.249.653,0,1.431-.28,2.084a1.96,1.96,0,0,1-1.368,1.089,6.023,6.023,0,0,1-1.835.093,2.694,2.694,0,0,1-1-.187.959.959,0,0,1-.56-.809Z" transform="translate(-180.824 -88.954)"/></g></g><g transform="translate(64.53 2.449)"><path class="i" d="M253.44,13.923a2.755,2.755,0,0,1-1.9-3.545,2.735,2.735,0,0,1,3.825-1.244,2.711,2.711,0,0,1,2.612-1.275,2.678,2.678,0,0,1,2.177,1.928,1.674,1.674,0,0,0,.28.778,2.725,2.725,0,0,0,1,.5A2.5,2.5,0,0,1,262.4,14.2a9.493,9.493,0,0,1-2.115,2.892,5.146,5.146,0,0,0-1.617,3.141,2.649,2.649,0,0,0-1.306-.84Z" transform="translate(-241.153 -7.839)"/><g transform="translate(0 3.875)"><g transform="translate(3.455)"><g transform="translate(8.493 37.041)"><path class="i" d="M266.608,143.661l-9.641-4.261-.031.653a35.8,35.8,0,0,0,3.981,17.883l1.275,2.457,8.024-2.146Z" transform="translate(-256.908 -139.4)"/><path class="j" d="M273.9,202.766l2.146,4.167-.746,7,3.048,17.7c.591,0,1.182-.031,1.773-.031l2.3-24.88L280.96,200.9Z" transform="translate(-268.615 -181.773)"/><path class="p" d="M286.691,301.262l1.773-.062,2.208,1.089,2.8.249.435.591-7.806.373Z" transform="translate(-277.021 -250.879)"/></g><g transform="translate(0 35.89)"><path class="j" d="M241.636,203.342l.871,3.577-3.608,5.069-2.8,12.533,1.493,1,11.258-17.727-.435-6.189Z" transform="translate(-234.079 -181.105)"/><path class="k" d="M249.574,140.987l-9.112-5.287-.373,2.395a29.176,29.176,0,0,0,1.617,14.773l1.99,5.163,7.868-2.021Z" transform="translate(-236.605 -135.7)"/><path class="p" d="M231.5,276.2l1.4,1.089,1.026,2.239,1.99,1.959-.062.746-6.251-4.665Z" transform="translate(-229.6 -232.504)"/></g><path class="p" d="M253.437,59.8c-1.679-2.364-8.3-.56-8.3-.56-1.182,1.306-.622,2.892-1.306,4.447-2.364,5.443-4.323,16.2-4.074,30.043l16.141-1.213C257.7,91.586,257.729,65.772,253.437,59.8Z" transform="translate(-236.58 -46.677)"/><g transform="translate(6.737)"><path class="j" d="M253.887,20.3a1.522,1.522,0,0,0-1.026,1.337,16.862,16.862,0,0,0-.031,1.773,1.713,1.713,0,0,1-.84,1.462c-.28.124-.622.156-.715.435-.093.373.4.591.684.84.435.4.311,1.12.187,1.679-.124.591-.218,1.275.249,1.679.591.5,1.462.031,2.208.031.715.031.311,4.23.529,4.914a2.838,2.838,0,0,0,3.359-1.928l.031-5.878a1.188,1.188,0,0,0,1.182-.28,1,1,0,0,0,.187-1.182c-.187-.373-1.275-1.089-1.648.28a5.036,5.036,0,0,1-.622-2.177C257.526,20.673,253.887,20.3,253.887,20.3Z" transform="translate(-251.263 -20.3)"/></g></g><g transform="translate(0.656 18.909)"><path class="j" d="M228.531,83.619l-4.012,6.78-1.337,13.249-1.959-.435L220.6,89.5l4.478-8.4Z" transform="translate(-220.6 -81.1)"/><path class="j" d="M223.081,151.633a3.691,3.691,0,0,1,1.026.809,1.26,1.26,0,0,1,.28,1.213c-.062.187-.187.342-.218.5a2.55,2.55,0,0,0,.093.964c.031.311-.093.746-.4.778-.249.031-.466-.156-.653-.249-.529-.28-1.213-.156-1.742-.467a1.78,1.78,0,0,1-.809-1.306,5.472,5.472,0,0,1,.124-1.586,2.674,2.674,0,0,1,.28-.84.758.758,0,0,1,.746-.373Z" transform="translate(-220.624 -129.303)"/></g><g transform="translate(0 21.522)"><path class="j" d="M247.85,90l-.435,3.514-16.3-1.99-.218,2.27,20.5,4.914.529-9.206Z" transform="translate(-227.041 -89.5)"/><path class="j" d="M223.5,92.152A4.319,4.319,0,0,0,222.536,91a1.509,1.509,0,0,0-1.431-.28,3.444,3.444,0,0,1-.591.28,3.4,3.4,0,0,1-1.12-.062c-.373-.031-.84.124-.9.5-.031.28.187.529.311.746.342.622.249,1.4.591,1.99a1.99,1.99,0,0,0,1.524.871,5.94,5.94,0,0,0,1.8-.187,2.553,2.553,0,0,0,.964-.342.859.859,0,0,0,.4-.871Z" transform="translate(-218.49 -90.286)"/></g><path class="p" d="M242.108,60.457s-5.038-.684-8.708,6.1l4.354,3.421Z" transform="translate(-228.763 -47.955)"/><path class="p" d="M282.1,60.5s4.914,1.244,5.816,8.926L282.6,70.981Z" transform="translate(-262.317 -47.998)"/></g></g><g transform="translate(90.738)"><g transform="translate(0 17.052)"><path class="e" d="M307.99,73.556l-.933-5.256-2.27.218-.186,6.313Z" transform="translate(-304.027 -64.1)"/><path class="e" d="M306.13,59.835a4.358,4.358,0,0,0,.933-1.182,1.523,1.523,0,0,0-.031-1.462,5.194,5.194,0,0,1-.373-.5,2.721,2.721,0,0,1-.155-1.12c-.031-.373-.311-.809-.684-.778-.28.031-.467.28-.684.467-.529.467-1.306.529-1.835,1a2.047,2.047,0,0,0-.529,1.679,5.706,5.706,0,0,0,.56,1.742,3.108,3.108,0,0,0,.529.871.826.826,0,0,0,.933.218Z" transform="translate(-302.758 -54.795)"/><path class="g" d="M315.556,60.7a68.852,68.852,0,0,0-5.411,12.782c-.871-2.27-1.182-4.447-2.084-6.718a6.662,6.662,0,0,0-.311-.684c-.871.373-2.27.684-3.141,1.089a1.3,1.3,0,0,1-.311.124v.5a41.85,41.85,0,0,0,2.239,13.715,5.459,5.459,0,0,0,2.022,3.141c1.555.933,3.545.28,5.1-.653a16.167,16.167,0,0,0,7.153-9.548Z" transform="translate(-303.818 -58.864)"/></g><g transform="translate(4.989 16.027)"><g transform="translate(0 26.933)"><path class="p" d="M332.5,142.361l9.641-4.261.031.653a36.792,36.792,0,0,1-1.151,10.574c-.933,3.514-2.861,6.656-3.825,10.139-.56,2.053-.933,4.167-1.337,6.251-.933,5.038-1.679,10.139-2.395,15.239-.342,2.333-.653,4.7-.964,7.029-.591,0-1.182-.031-1.773-.031l-1.99-14.773a52.627,52.627,0,0,1,1.089-19.842Z" transform="translate(-325.316 -138.1)"/><path class="k" d="M325.984,299.931l-1.742-.031L322,300.989l-2.8.218-.4.622,7.775.373Z" transform="translate(-318.8 -249.579)"/></g><g transform="translate(13.529 24.538)"><path class="l" d="M362.3,138.051l7.246-7.651,1.026,2.208a29.228,29.228,0,0,1,2.612,14.617L373,149.433c-.373,4.572,6.873,30.7,6.873,30.7-.56.218-1.089.435-1.648.653L370.7,167.907a53,53,0,0,1-6.687-18.722Z" transform="translate(-362.3 -130.4)"/><path class="k" d="M406.509,291.6l-1.617.653-1.648,1.866-2.488,1.275-.156.746,7.34-2.675Z" transform="translate(-388.688 -241.466)"/></g><path class="q" d="M341.719,51.5a7.1,7.1,0,0,1,4.758,2.426A16.576,16.576,0,0,1,349.09,58.4c2.364,5.443,6.469,23.077,5.349,24.849l-17.416,3.981c-1.8-.933.964-18.847.249-25.16-.342-2.923-.809-6.189,1.12-8.553Z" transform="translate(-330.927 -51.5)"/></g><g transform="translate(14.836 16.861)"><g transform="translate(20.442 18.293)"><path class="e" d="M416.4,114.524l1.306,5.194,2.27-.4L419.666,113Z" transform="translate(-416.335 -113)"/><path class="e" d="M417.158,129.317a4.18,4.18,0,0,0-.84,1.244,1.458,1.458,0,0,0,.124,1.431c.124.156.311.311.436.467a2.54,2.54,0,0,1,.249,1.089c.062.373.342.777.746.715.28-.031.435-.311.653-.529.5-.5,1.275-.622,1.773-1.12a1.975,1.975,0,0,0,.4-1.711,6.577,6.577,0,0,0-.684-1.679,2.727,2.727,0,0,0-.591-.84.921.921,0,0,0-.964-.156Z" transform="translate(-416.19 -123.439)"/></g><path class="q" d="M368.2,68.99c1.057,2.208,1.524,4.354,2.55,6.562a3.494,3.494,0,0,0,.373.653c.84-.435,2.208-.871,3.048-1.306a1.3,1.3,0,0,1,.311-.124,2.841,2.841,0,0,0-.031-.5,41.59,41.59,0,0,0-3.234-13.529c-.5-1.182-14.959-6.1-16.172-6.438-4.541-1.275-6.22,7.153-2.675,9.33C355.885,65.818,365.09,65.165,368.2,68.99Z" transform="translate(-350.461 -54.18)"/></g><g transform="translate(5.15)"><path class="i" d="M323.138,10.426a1.548,1.548,0,0,1-1.679-.435,1.565,1.565,0,0,1-.186-1.711,1.421,1.421,0,0,1-1.12-2.177,1.362,1.362,0,0,1-.809-1.524,1.353,1.353,0,0,1,1.4-1.026,2.244,2.244,0,0,1,1.12-2.053,2.179,2.179,0,0,1,2.333.249,2.5,2.5,0,0,1,4.6-.467A3.231,3.231,0,0,1,332.81,3.9a2.189,2.189,0,0,1,1.431,2.923A1.79,1.79,0,0,1,335.547,8.4a1.833,1.833,0,0,1-1.12,1.742,1.843,1.843,0,0,1-1.773,2.457.986.986,0,0,1-1.431,1.337,1.667,1.667,0,0,1-2.986.746Z" transform="translate(-319.318 0.034)"/><g transform="translate(2.221 6.822)"><path class="e" d="M328.837,21.9a1.43,1.43,0,0,0-.933,1.213,13.894,13.894,0,0,0-.031,1.617,1.53,1.53,0,0,1-.778,1.337c-.249.093-.56.156-.622.4-.093.342.373.529.622.778a1.623,1.623,0,0,1,.156,1.524c-.125.529-.187,1.151.218,1.493.529.435,1.306.031,1.99.031a1.981,1.981,0,0,1,1.555.964,30.386,30.386,0,0,1,1.12,3.732c1.089.187,2.457-1.089,2.923-2.675L333,27.685a1.026,1.026,0,0,0,1.057-.249.956.956,0,0,0,.187-1.057c-.187-.342-1.151-.964-1.493.249a4.62,4.62,0,0,1-.56-1.959C332.133,22.242,328.837,21.9,328.837,21.9Z" transform="translate(-326.461 -21.9)"/></g></g></g></g></g></g></g></svg>