<svg xmlns="http://www.w3.org/2000/svg" xmlns:xlink="http://www.w3.org/1999/xlink" width="213.64" height="163.282" viewBox="0 0 213.64 163.282"><defs><style>.a{fill:url(#a);}.b{opacity:0.3;fill:url(#b);}.c{fill:url(#c);}.d{fill:url(#d);}.e{fill:url(#e);}.f{fill:#00394d;}.g{fill:#dbd8e3;}.h{fill:#1d2033;}.i{fill:#347f7c;}.j{fill:#ffd4c6;}.k{fill:#c4c1cc;}.l{fill:#3a4066;}.m{fill:url(#f);}.n{fill:#eea886;}.o{fill:url(#h);}.p{fill:url(#i);}.q{fill:#97a40c;}.r{fill:#eddad3;}.s{fill:#d6c5be;}.t{fill:url(#j);}.u{fill:#d4d841;}.v{fill:#fae6de;}.w{fill:url(#k);}.x{fill:url(#l);}.y{fill:url(#n);}.z{fill:url(#o);}.aa{fill:#cfbeb8;}.ab{fill:#a69993;}.ac{fill:#dbdff0;}</style><linearGradient id="a" x1="0.466" y1="0.087" x2="0.718" y2="1.064" gradientUnits="objectBoundingBox"><stop offset="0" stop-color="#cfe7c7" stop-opacity="0.2"/><stop offset="1" stop-color="#9e9d24" stop-opacity="0"/></linearGradient><linearGradient id="b" x1="0.5" y1="0.974" x2="0.5" gradientUnits="objectBoundingBox"><stop offset="0" stop-color="#00394d"/><stop offset="1" stop-color="#9e9d24" stop-opacity="0"/></linearGradient><linearGradient id="c" x1="0.5" y1="0.974" x2="0.5" y2="0.108" gradientUnits="objectBoundingBox"><stop offset="0" stop-color="#9e9d24"/><stop offset="1" stop-color="#9e9d24" stop-opacity="0"/></linearGradient><linearGradient id="d" x1="0.529" y1="1.02" x2="0.422" y2="-1.681" gradientUnits="objectBoundingBox"><stop offset="0" stop-color="#ffd4c6"/><stop offset="1" stop-color="#ffab91"/></linearGradient><linearGradient id="e" x1="0.52" y1="1.031" x2="0.358" y2="-1.728" xlink:href="#d"/><linearGradient id="f" x1="0.541" y1="1.049" x2="0.329" y2="-1.77" xlink:href="#d"/><linearGradient id="h" x1="0.588" y1="1.039" x2="0.106" y2="-1.739" xlink:href="#d"/><linearGradient id="i" x1="0.592" y1="1.051" x2="0.102" y2="-1.775" xlink:href="#d"/><linearGradient id="j" x1="0.541" y1="1.074" x2="0.431" y2="-1.73" xlink:href="#d"/><linearGradient id="k" x1="0.546" y1="1.054" x2="0.31" y2="-1.803" xlink:href="#d"/><linearGradient id="l" x1="0.548" y1="1.045" x2="0.334" y2="-1.758" xlink:href="#d"/><linearGradient id="n" x1="0.522" y1="1.039" x2="0.357" y2="-1.774" xlink:href="#d"/><linearGradient id="o" x1="0.528" y1="1.035" x2="0.404" y2="-1.725" xlink:href="#d"/></defs><g transform="translate(0)"><path class="a" d="M116.712,7.238c-37.571,12.633-44.874,19.344-78.793,8.29S-13.74,56.191,12.872,86.984,69.75,145.411,141.76,133.963s74.1-86.457,54.269-111.328S154.283-5.4,116.712,7.238Z" transform="translate(206.491 163.282) rotate(-177)"/><path class="b" d="M64.29,543c-33.271,14.787-39.739,22.643-69.776,9.7s-45.748,47.6-22.182,83.641,50.37,68.39,114.14,54.989,65.619-101.2,48.059-130.312S97.562,528.217,64.29,543Z" transform="translate(39.31 -534.532)"/><g transform="translate(22.18 2.092)"><path class="c" d="M115.823-209.887A42.174,42.174,0,0,0,139.656-171.9a41.89,41.89,0,0,0,14.9,4.046q1.472.12,2.971.136c.158,0,.314,0,.471,0a42.152,42.152,0,0,0,12.428-1.861,42.187,42.187,0,0,0,29.743-40.31Z" transform="translate(-115.823 260.58)"/><g transform="translate(3.34)"><g transform="translate(76.707 33.922)"><path class="d" d="M251.331-236.617s5.7-1.851,6.159-1.645.526.533,0,.729-5.462,1.954-5.462,1.954,7.039-1.015,7.458-.935c.245.047.4.67.128.8s-7.215,1.555-7.215,1.555,6.574-.935,6.9-.757a.494.494,0,0,1-.193.877c-.485.1-6.555,1.333-6.555,1.333s4.81-.365,4.994-.039c.113.2.273.73-.969.783s-4.175.5-4.175.5Z" transform="translate(-251.331 238.277)"/></g><g transform="translate(70.43 32.201)"><path class="e" d="M240.706-234.619s1.843-.732,1.975-1.9a7.065,7.065,0,0,1,1.186-2.593c.337-.506.841-2.437,1.431-2.026s-.686,3.219-.845,3.857,2.358-.722,2.988-.6,2.343,4.536.523,5.265-4.167.266-4.465.46a12.029,12.029,0,0,1-1.307.585Z" transform="translate(-240.706 241.191)"/></g><g transform="translate(20.264 67.62)"><path class="f" d="M186.549-157.981a42.154,42.154,0,0,1-12.428,1.861c-.158,0-.314,0-.471,0-.906-3.331-1.675-5.511-2.059-5.029-.292.367-.6,2.233-.912,4.894a41.9,41.9,0,0,1-14.9-4.047c.149-7.166.8-14,2.448-18.549,2.563-7.063,26.444,3.856,26.444,3.856S185.6-166.113,186.549-157.981Z" transform="translate(-155.781 181.232)"/></g><g transform="translate(6.081 24.463)"><path class="g" d="M134.93-227.622c-1.251,3.421,10.238,11.994,8.809,12.256s-1.366,2.972-1.366,2.972-10.821-9.423-10.6-12.2c.123-1.541,8.594-23.951,9.888-24.877a93.144,93.144,0,0,1,9.3-3.944,20.57,20.57,0,0,1,2.55-.872c.657-.041,8.762.735,8.762.735s1.161.4,2.35.944c2.028.93,5.187,2.385,7.455,3.465.733.348,1.649.82,2.411,1.223q-.14,4.132-.49,8.864s-.422,6.9-.461,13.86a32.04,32.04,0,0,0-.3,5.241c-.1,3.475.288,7.044.388,9.037.16,3.136.591,7.6.591,7.6l-3.941,1.609-17.265-.161L147.6-203.32s.321-13.884.241-17.919c-.076-3.889-.894-13.988-1.053-14.571C146.79-235.811,141-244.219,134.93-227.622Z" transform="translate(-131.771 254.29)"/></g><path class="h" d="M187.326-170.5a143.63,143.63,0,0,1-22.248,0v3.408s15.469,1.478,22.768-.65Z" transform="translate(-139.322 244.459)"/><g transform="translate(37.888 25.695)"><path class="i" d="M185.616-252.2s1.929,4.533,3.377,14.662c.556,3.892,1.586,10.441,2.335,17.126v0c.591,5.269,1.939,10.677,2.368,14.711.444,4.179,1.781,16.49,1.781,16.49l3.244-2.045c.463-.428,1.113-.985.924-1.586-.892-2.88-2.6-12.4-3.608-20.7,0-.007,0-.011,0-.017-.113-.948-.411-3.4-.608-5.96a14.891,14.891,0,0,1,.145-3.274c.452-7.449.677-15.3.677-15.3.237-3.216.373-6.219.465-9.02C196.714-247.119,186.538-251.928,185.616-252.2Z" transform="translate(-185.616 252.204)"/></g><g transform="translate(0 24.913)"><path class="i" d="M131.847-228.2c-1.407,3.084,8.915,12.505,8.793,12.825a29.633,29.633,0,0,1-3.388,5.247s-15.983-17.168-15.772-19.282c.153-1.539,13.552-18.65,14.846-19.576.747-.536,6.283-2.5,9-3.569.5-.2,2.114-.805,2.559-.974.577.641,4.625,5,6.027,21.555.236,2.791-.51,8.7-1.008,13.525-.532,5.146-1.121,9.163-1.553,13.467-.85,8.479-1.445,15.226-1.445,15.226l-8.439-3.757c-1.366-.683-3.727-2.466-3.214-3.9,1.951-5.464,4.878-15.82,4.881-20.615,0,0-2.23-16.017-2.976-18.6C140.156-236.629,133.42-231.647,131.847-228.2Z" transform="translate(-121.478 253.528)"/></g><g transform="translate(27.432 16.653)"><path class="j" d="M169.051-258.837a56.87,56.87,0,0,0-1.128-8.411c-.287-1.507,8.747,3.964,8.747,3.964s-.028.528-.046,1.241c-.009.376-.015.8-.013,1.232,0,.151,0,.3.006.45.008.4.027.779.061,1.1a5.22,5.22,0,0,0,.3,1.086C177.351-257.313,172.093-256.66,169.051-258.837Z" transform="translate(-167.917 267.51)"/></g><path class="i" d="M178.732-247.893l1.5,2.011a1.815,1.815,0,0,1-2.435.308Z" transform="translate(-144.527 276.135)"/><path class="i" d="M180.381-244.386s5.679,21.867,4.509,38.887l-1.91,3.368-1.789-3.528s-.49-30.446-2.047-38.781Z" transform="translate(-145.079 274.722)"/><path class="j" d="M178.632-251.465l-1.6,1.875s-2.573-.5-3.329-1.843S178.632-251.465,178.632-251.465Z" transform="translate(-142.823 277.832)"/><path class="k" d="M181.353-253.848a7.732,7.732,0,0,1-1.971,3.518l1.949,2.618,1.054-5.43Z" transform="translate(-145.177 278.572)"/><path class="k" d="M168.561-256.151s3.185,3.849,5.787,4.878l-1.21,2.993-6.056-6.51Z" transform="translate(-140.143 279.515)"/><g transform="translate(43.247 30.11)"><path class="i" d="M226.658-232.945s-13.726,14.913-16.965,14.116c-1.5-.369-3.766-2.954-5.64-5.384-.618-.8-1.223-1.64-1.8-2.471l0,0c-2.3-3.32-4.1-6.5-4.1-6.5s-6.8-7.965-1.342-11.516a6.151,6.151,0,0,1,3.606.732c1.208.891,4.144,6.5,4.621,7.538s4.186,8.367,4.531,8.584,3.989-1.97,5.937-3.28a71.9,71.9,0,0,0,7.1-5.809Z" transform="translate(-194.688 244.73)"/></g><rect class="l" width="5.547" height="4.208" transform="translate(33.711 74.14)"/><g transform="translate(26.611 2.535)"><path class="j" d="M180.858-286.916s1.985,3.68,1,4.252c-.813.473.952,4.083,1.183,4.674s-1.472,1.018-1.834,1.4-1.434,5.052-2.837,5.193-7.723-2.057-9.444-3.846-3.133-9.873-1.985-13.282S177.355-293.343,180.858-286.916Z" transform="translate(-166.526 291.411)"/></g><g transform="translate(24.93)"><path class="f" d="M180.09-287.874a5.653,5.653,0,0,0-1.654-6.922c-3.68-2.948-10.466,2.226-11.23,2.423s-5.1.5-2.913,8.115c1.881,6.542,2.144,6.817,2.144,6.817s1.4-3.79,2.2-4.368c1.242-.9,3.967-.686,3.967-.686s-1.3-3.446.731-3.934S178.037-288.637,180.09-287.874Z" transform="translate(-163.68 295.702)"/></g><g transform="translate(28.627 9.553)"><path class="m" d="M173-277.85c-.178-.473-.757-2.5-2.5-1.311s1.086,5.023,1.39,5.072S174.51-273.871,173-277.85Z" transform="translate(-169.939 279.531)"/></g><path class="n" d="M178.365-258.867c0,.151,0,.3.006.45-5.168-1.734-6.168-4.345-6.168-4.345a35.253,35.253,0,0,0,6.175,2.662C178.369-259.723,178.363-259.3,178.365-258.867Z" transform="translate(-142.239 282.22)"/><path class="n" d="M149.1-189.078a1.813,1.813,0,0,0,1.007.405c.894-.008,1.913-.98,2.848-.1s-1.034,4.639-1.743,5.08-2.32-.351-4.045-2.436S149.1-189.078,149.1-189.078Z" transform="translate(-131.803 252.088)"/><path class="j" d="M154.272-188.938a37.093,37.093,0,0,1,3.738,1.562c1.692.826,3.677,2.086,3.475,2.515-.307.65-1.816-.57-3.55-1.275-1.595-.649-1.39-.25-1.39-.25s-.052-.116,1.548.932c1.72,1.128,3.521,2.411,3.362,2.766-.2.438-.26.477-.952.171.36.262.339.4.243.561-.494.839-3.281-.419-4.387-.919.848.389,1.428.767.793,1.085-.725.364-4.585-1.6-6.035-2.163C149.538-184.571,154.272-188.938,154.272-188.938Z" transform="translate(-133.477 252.006)"/><path class="i" d="M145.965-193.692s-.393,2.3-3.388,5.247c0,0-6.865-7.574-8.089-8.991l5.371-3.117Z" transform="translate(-126.802 256.759)"/></g><g transform="translate(59.958 64.856)"><path class="c" d="M305.246-96.691A36.922,36.922,0,0,1,287.417-65.07a36.652,36.652,0,0,1-5.052,2.551q-.915.377-1.854.705a36.828,36.828,0,0,1-12.21,2.068c-.841,0-1.676-.028-2.5-.084q-1.077-.07-2.134-.2a36.687,36.687,0,0,1-13.332-4.37q-.9-.5-1.771-1.054a37.028,37.028,0,0,1-5.4-4.157,36.843,36.843,0,0,1-11.809-27.076Z" transform="translate(-231.356 143.478)"/><g transform="translate(11.809 0)"><g transform="translate(28.749 9.29)"><path class="o" d="M300.52-159.72s.949-1.014,1.3.012-1.295,5.6-1.353,5.819c0,0-.174.4-.4.179S300.52-159.72,300.52-159.72Z" transform="translate(-300.016 160.167)"/></g><g transform="translate(14.464 9.29)"><path class="p" d="M277.179-159.72s-.949-1.014-1.3.012,1.295,5.6,1.354,5.819c0,0,.173.4.4.179S277.179-159.72,277.179-159.72Z" transform="translate(-275.833 160.167)"/></g><path class="f" d="M296.287-150.963s5.856,12.348,1.825,13.087c-5.535,1.014-7.775-9.213-7.775-9.213Z" transform="translate(-267.305 165.69)"/><g transform="translate(26.78 26.136)"><path class="q" d="M314.154-79.379a36.648,36.648,0,0,1-5.052,2.551c-1.064-1.951-6.461-11.383-7.086-13.307-.9-2.759-2.623-10.6-2.691-11.219s-1.51-13.629-1.933-15.756a21.234,21.234,0,0,1-.378-9.319c.742-5.2,2.478-5.221,2.478-5.221,4.85,1.777,5.35,13.032,5.217,14.338s1.459,13.743,1.5,16.278a54.2,54.2,0,0,0,1.439,8.243C307.946-91.557,313.16-81.323,314.154-79.379Z" transform="translate(-296.682 131.65)"/></g><g transform="translate(7.167 53.775)"><path class="f" d="M293.658-56.973a36.828,36.828,0,0,1-12.21,2.068c-.841,0-1.676-.028-2.5-.084-.265-2.05-.255-3.075-.6-3.477-.881-1.028-.957.633-1.47,2.908-.021.094-.043.216-.066.366a36.688,36.688,0,0,1-13.333-4.37,43.548,43.548,0,0,1,2.809-12.379c9.851-27.8,23.756-2.086,23.756-2.086S292.591-62.17,293.658-56.973Z" transform="translate(-263.479 84.861)"/></g><g transform="translate(7.839 24.089)"><path class="r" d="M281.27-134.94a35,35,0,0,0,4.517,1.816c1.164.233,5.681,6.1,6.473,8.242s0,5.355-1.63,9.126-.093,5.029-.838,8.8A87.74,87.74,0,0,0,288.534-93.1c.14,2.1-18.834,2.491-23.164-1.327,0,0,4.353-6.519,4.911-7.45s.093-6.007-.419-7.311-3.921-12.391-3.921-12.391-2.789-8.515-.27-10.472c2.189-1.7,8.153-2.306,9.225-2.678A18.3,18.3,0,0,1,281.27-134.94Z" transform="translate(-264.617 135.115)"/></g><g transform="translate(25.465 23.072)"><path class="s" d="M294.553-128.171l2.037-2.386-1.769-6.28A41.45,41.45,0,0,0,294.553-128.171Z" transform="translate(-294.456 136.837)"/></g><g transform="translate(21.554 28.548)"><path class="t" d="M291.844-127.567v3.19l-4.009-3Z" transform="translate(-287.834 127.567)"/></g><g transform="translate(16.477 24.042)"><path class="s" d="M288.326-127.5l-1.665-2.061-5.384-5.635L279.24-133.4Z" transform="translate(-279.24 135.194)"/></g><g transform="translate(6.114 24.623)"><path class="u" d="M273.1-134.211s4.706,7.142,4.931,10.284-1.749,26.654-3.329,34.212-13-.852-13-.852,7.673-12.421,4.728-22.366-4.016-13.922-4.016-13.922,1.013-5.539,4.605-6.318C270.163-133.857,273.1-134.211,273.1-134.211Z" transform="translate(-261.697 134.211)"/></g><g transform="translate(26.979 25.366)"><path class="u" d="M305.831-123.044s.849,3-2.458,9.642c0,0,.053,8.5.146,11.15s1.969,12.2,1.969,12.2l-4.518,2.406a.923.923,0,0,1-1.382-.907c.926-7.638,3.939-36.61-2.569-44.4l2.612.77S304.269-128.387,305.831-123.044Z" transform="translate(-297.019 132.953)"/></g><g transform="translate(25.831 23.072)"><path class="v" d="M296.844-130.557l2.567.709-4.336-6.99Z" transform="translate(-295.075 136.837)"/></g><path class="q" d="M308.554-102.675s.155,10.605-.491,15.72l-.287-14.055Z" transform="translate(-274.442 145.927)"/><g transform="translate(18.198 16.113)"><path class="w" d="M290.148-144.017s-.657,6.107-.63,8.431c0,0-2.229,2.336-7.365-4.344a10.412,10.412,0,0,0,.413-7.386C281.309-151.575,290.148-144.017,290.148-144.017Z" transform="translate(-282.154 148.617)"/></g><path class="x" d="M285.824-175.447s7.073,1.089,6.037,12.229-7.277,10.255-7.694,10.247-6.262.232-6.767-13.362C277.4-166.333,277.164-176.386,285.824-175.447Z" transform="translate(-262.01 175.737)"/><path class="f" d="M278.657-167.157s7.849,2.335,11.607,1.588c0,0,.24,1.386.78,1.471s.815-2.65.815-2.65,1.3-9.3-8.112-9.145c-8.194.138-6.43,9.813-6.43,9.813l.112,1.691S278.6-163.924,278.657-167.157Z" transform="translate(-261.911 175.894)"/><path class="n" d="M284.148-139.156s2.476,2.346,6.286.193a3.97,3.97,0,0,1-3.261,1.833A3.6,3.6,0,0,1,284.148-139.156Z" transform="translate(-264.772 160.858)"/><g transform="translate(16.764 23.666)"><path class="v" d="M286.86-129.82l-2.345,3.073-4.79-8.028,1.873-1.057Z" transform="translate(-279.726 135.832)"/></g><path class="u" d="M264.359-117.386c-.614,1.667-3.5,9.4-3.5,9.4-1.728,7.619-2.138,10.119-2.345,12.9-.2,2.76-1.342,11.747-1.774,15.124a37.029,37.029,0,0,1-5.4-4.157c.448-3.242.959-7.266,1.071-9.532.209-4.225.672-6.94.89-9.57.126-1.53,1.967-11.534,2.581-13.684s.878-6.582,1.537-10.574,4.513-4.983,5.84-4.553C269.234-130.1,264.974-119.054,264.359-117.386Z" transform="translate(-251.347 157.98)"/></g></g><g transform="translate(106.504 7.388)"><path class="c" d="M335.02-238.764A30.456,30.456,0,0,1,313.4-209.619a30.423,30.423,0,0,1-8.822,1.3c-.226,0-.451,0-.676-.008a30.542,30.542,0,0,1-3.35-.258,30.2,30.2,0,0,1-9.795-3.046,30.441,30.441,0,0,1-16.622-27.132Z" transform="translate(-274.136 275.673)"/><g transform="translate(0.355 0)"><g transform="translate(51.251 23.335)"><g transform="translate(0 0.816)"><path class="y" d="M361.5-255.617s1.025-.95.822-1.662a3.046,3.046,0,0,1,.152-1.564c.087-.374.122-1.583.4-1.516.471.113.362,2.044.42,2.456s1.3-.966,1.73-1.038,2.59,2.121,1.626,2.967a13.908,13.908,0,0,1-2.434,1.372,7.537,7.537,0,0,1-.8.684Z" transform="translate(-361.497 260.361)"/></g><g transform="translate(3.253)"><path class="z" d="M367-259.362a28.652,28.652,0,0,1,3.466-2.38c.342.015.462.191.179.428s-2.952,2.4-2.952,2.4,4.174-2.212,4.457-2.262c.165-.028.29.287.151.428s-4.025,2.583-4.025,2.583,3.9-2.059,4.15-2.03a.3.3,0,0,1,.1.558c-.279.172-3.792,2.288-3.792,2.288a17.916,17.916,0,0,1,3.129-1.171c.12.091.288.291-.479.608a27.414,27.414,0,0,0-2.438,1.329Z" transform="translate(-367.004 261.742)"/></g></g><g transform="translate(29.536)"><path class="f" d="M324.749-301.234s7.474-.621,7.27,7.24-1.451,9.044,0,14.6-7.286-3.154-7.286-3.154Z" transform="translate(-324.736 301.246)"/></g><g transform="translate(16.267 40.013)"><path class="f" d="M324.917-207.469a30.422,30.422,0,0,1-8.822,1.3c-.226,0-.451,0-.676-.008-.18-2.071-.325-3.7-.4-4.291-.224-1.8-.323-2.877-.323-2.877-.435.529-.96,2.083-2.629,6.91a30.2,30.2,0,0,1-9.795-3.046c.069-.467.131-.849.183-1.13.546-2.911,2.928-14.471,2.928-14.471s10.365-20,17.71,1.623C325.469-216.467,325.493-212.854,324.917-207.469Z" transform="translate(-302.274 233.51)"/></g><g transform="translate(26.438 12.661)"><path class="j" d="M319.493-271.543a31.031,31.031,0,0,0,1.145-3.277q.035-.123.066-.248c.058-.226.112-.454.161-.681q.041-.193.076-.385a5.4,5.4,0,0,0,0-2.52c-.724-2.141,4.544-.659,4.544-.659s-1.021,5.662,0,7.572S319.493-271.543,319.493-271.543Z" transform="translate(-319.493 279.812)"/></g><g transform="translate(15.211 19.431)"><path class="r" d="M320.65-266.944c.587-.735-3.539-.991-3.539-.991l-4.814-.415a42.988,42.988,0,0,0-5.878,1.44c-2.568.889-5.933,5.755-5.933,5.755s4.642,10.9,5.531,14.025-1.008,11.087-1.008,11.087c5.565,3.029,16.553.323,16.553.323S317.182-262.6,320.65-266.944Z" transform="translate(-300.487 268.351)"/></g><g transform="translate(36.156 28.547)"><path class="aa" d="M337.124-247.494s-.217.457-.81,2.255a36,36,0,0,1-.289-7.682A18.97,18.97,0,0,0,337.124-247.494Z" transform="translate(-335.943 252.92)"/></g><g transform="translate(26.438 19.177)"><path class="j" d="M325.158-268.281l-5.666,4.618.584-4.865S323.379-269.24,325.158-268.281Z" transform="translate(-319.492 268.782)"/></g><g transform="translate(27.572 19.608)"><path class="q" d="M329.681-248.523c-.779,3.231,3.163,13.345,3.163,13.345l-6.653,2.252a1.419,1.419,0,0,1-1.852-1.095c-.75-4.207-2.695-15.487-2.915-20.488-.273-6.213,4.25-13.543,4.25-13.543,8.04,1.38,5.836,13.543,5.836,13.543s-.292.766-.682,1.964h0c-.1.3-.2.629-.31.979C330.243-250.666,329.947-249.622,329.681-248.523Z" transform="translate(-321.412 268.052)"/></g><g transform="translate(14.242 19.431)"><path class="q" d="M311.056-268.085l.1-.266a27.6,27.6,0,0,0-6.211,1.672c-2.092,1.045-6.1,6.445-6.1,6.445l5.24,6.918c.006,5.316-1.849,17.789-1.849,17.789l3.642,1.49a.87.87,0,0,0,1.2-.792c.059-3.8.234-15.041.325-19.429.109-5.318,3.9-13.916,3.9-13.916C311.221-268.146,311.139-268.115,311.056-268.085Z" transform="translate(-298.846 268.351)"/></g><g transform="translate(18.987 40.426)"><path class="j" d="M306.878-228.611a44.8,44.8,0,0,0,4.565,0c.615-.154,4.715-1.932,4.96-3.688s-9.525,1.574-9.525,1.574Z" transform="translate(-306.878 232.81)"/></g><g transform="translate(15.211 37.261)"><path class="ab" d="M316.52-236.292l-16.034-1.877,7.243,5.894Z" transform="translate(-300.487 238.168)"/></g><g transform="translate(22.158 39.137)"><path class="ac" d="M312.543-230.975l8.791-3v-1.021l-9.087,2.915Z" transform="translate(-312.247 234.991)"/></g><g transform="translate(22.799 18.534)"><path class="v" d="M317.85-269.87l-3.046,4.833-1.473.929,3.433-4.813Z" transform="translate(-313.331 269.87)"/></g><g transform="translate(24.272 18.534)"><path class="s" d="M315.826-265.037l2.166.929.583-4.865.3-.9Z" transform="translate(-315.826 269.87)"/></g><g transform="translate(7.77 39.401)"><path class="q" d="M299.589-231.582a12.149,12.149,0,0,0,0,2.469s-9.888-.988-10.81-2.371a5.965,5.965,0,0,1-.889-3.062Z" transform="translate(-287.89 234.545)"/></g><g transform="translate(0 23.894)"><path class="ac" d="M297.191-241.536l-4.675-17.384L274.736-260.8l4.873,16Z" transform="translate(-274.736 260.797)"/></g><g transform="translate(33.629 23.335)"><path class="q" d="M343.535-251.861c.891-.735,1.416-1,2.49-1.93,1.672-1.44,3.81-3.262,3.81-3.262l2.031,2.983s-4.914,4.319-7.525,6.884h0s-3.306,3.549-4.045,3.235-3.374-4.134-5.477-7.806-3.047-6.016-3.152-7.615,5.188-2.369,5.188-2.369L341-252.69A13.361,13.361,0,0,0,342.114-251S343.046-251.534,343.535-251.861Z" transform="translate(-331.666 261.742)"/></g><g transform="translate(22.301 0.736)"><path class="j" d="M320.468-299.928a6.352,6.352,0,0,0-7.292,5.025,15.5,15.5,0,0,0,.2,2.431c.2,1.082-1.086,4.058-.859,4.238a6.807,6.807,0,0,0,1.216.49s.7,3.493,1.887,3.6a9.868,9.868,0,0,0,8.356-4.256C326.562-292.349,327.948-298.7,320.468-299.928Z" transform="translate(-312.489 300)"/></g><g transform="translate(22.987 0.003)"><path class="f" d="M313.651-295.41a16.858,16.858,0,0,0,5.742,3.167c2.953.76,4.516,4.077,4.516,4.077s5.225-5.211,2.072-10.27S313.656-301.239,313.651-295.41Z" transform="translate(-313.651 301.24)"/></g><g transform="translate(29.272 8.532)"><path class="f" d="M324.29-286.161s3.092,8.113,2.73,10.069a10.477,10.477,0,0,1,4.375.6S330.019-289.979,324.29-286.161Z" transform="translate(-324.29 286.802)"/></g><g transform="translate(26.438 18.781)"><path class="s" d="M321.13-264.721l-1.637.784,5.564-5.515Z" transform="translate(-319.492 269.452)"/></g><g transform="translate(28.075 18.781)"><path class="v" d="M326.191-269.452l-3.927,4.732,2.148,1.916,2.319-5.665Z" transform="translate(-322.264 269.452)"/></g><g transform="translate(27.649 15.104)"><path class="n" d="M324.818-275.676a6.843,6.843,0,0,1-3.275,2.3c.059-.226.112-.454.161-.681q.041-.193.076-.385A11.126,11.126,0,0,0,324.818-275.676Z" transform="translate(-321.543 275.676)"/></g><g transform="translate(32.543 19.734)"><path class="q" d="M329.827-267.809a6.16,6.16,0,0,1,6.687,4.719S329.929-263.8,329.827-267.809Z" transform="translate(-329.827 267.838)"/></g></g></g></g></g></svg>